<?xml version="1.0" encoding="UTF-8"?>
<svg version="1.1" xmlns="http://www.w3.org/2000/svg" width="1024" height="1024">
<path d="M0 0 C337.92 0 675.84 0 1024 0 C1024 337.92 1024 675.84 1024 1024 C686.08 1024 348.16 1024 0 1024 C0 686.08 0 348.16 0 0 Z M538 305 C534.95086171 308.4250842 533.24728404 311.4041616 531.83691406 315.75463867 C531.27547699 317.46009102 531.27547699 317.46009102 530.70269775 319.19999695 C530.31096375 320.42692764 529.91922974 321.65385834 529.515625 322.91796875 C529.09297496 324.21645572 528.66943354 325.51465284 528.24505615 326.81257629 C527.12722208 330.24035839 526.0226005 333.67226387 524.92041016 337.10510254 C524.04393371 339.82757371 523.15823637 342.5469961 522.27194786 345.2662859 C517.6122122 359.5644895 513.05326532 373.89041484 508.68536377 388.28092957 C506.52829696 395.37234753 504.23633778 402.41156501 501.875 409.4375 C501.46918701 410.64664063 501.06337402 411.85578125 500.64526367 413.1015625 C500.30213135 414.11992187 499.95899902 415.13828125 499.60546875 416.1875 C496.40165077 425.74978081 493.2999843 435.34518991 490.1875 444.9375 C485.11279698 460.57435341 479.96939685 476.18640867 474.73120117 491.76928711 C474.49356552 492.47796432 474.25592987 493.18664154 474.01109314 493.91679382 C473.37748318 495.80595913 472.74204149 497.69450983 472.10644531 499.58300781 C470.1552174 505.60890936 468.73961703 510.62061723 469 517 C476.17399671 521.11840552 482.55263647 523.18596361 490.75 521 C500.29151285 515.12829978 502.46798039 505.93611896 505.625 495.875 C506.13999476 494.27861487 506.65662764 492.68275737 507.17480469 491.08740234 C508.52883349 486.90640203 509.86372428 482.71954698 511.19421387 478.53100586 C513.27501603 471.99512463 515.39051193 465.47036862 517.50213623 458.94439697 C518.21951314 456.7195508 518.9301057 454.49264693 519.63916016 452.26513672 C522.20651456 444.24310345 524.95551552 436.31255861 527.87109375 428.41015625 C532.199651 416.65225533 536.03407903 404.75656366 539.8125 392.8125 C540.51060724 390.61619767 541.20901639 388.41999128 541.90771484 386.22387695 C543.6275447 380.8138028 545.34157799 375.40191337 547.0536499 369.98937988 C547.93575669 367.20293512 548.82004916 364.41719848 549.70556641 361.63183594 C552.84176735 351.76610823 555.94285388 341.89053054 559 332 C559.53052979 330.2998877 559.53052979 330.2998877 560.07177734 328.56542969 C561.00183288 325.56913777 561.91166013 322.56768273 562.8125 319.5625 C563.07369629 318.7274292 563.33489258 317.8923584 563.60400391 317.03198242 C564.82389588 312.87446253 564.82389588 312.87446253 564.4296875 308.6328125 C560.69554703 304.36813841 554.67416534 302.49070363 549.375 300.9375 C544.88337375 301.02067826 541.60795893 302.33680557 538 305 Z M431.5625 336 C430.56246948 337.03568115 430.56246948 337.03568115 429.54223633 338.09228516 C425.81553777 341.97691406 422.22627052 345.95767516 418.75561523 350.07275391 C416.87659269 352.13547174 414.88301006 353.91910381 412.77734375 355.75 C405.33378996 362.39160714 398.39154941 369.53878273 391.375 376.625 C388.65665547 379.37019554 385.93483134 382.11187432 383.2109375 384.8515625 C382.60551117 385.46528717 382.00008484 386.07901184 381.37631226 386.71133423 C377.66998147 390.43849459 373.84057695 393.9466889 369.83218384 397.3477478 C363.85278947 402.70033659 363.85278947 402.70033659 360.7265625 409.8125 C360.31975411 418.57452696 363.97545682 424.94221682 369.625 431.4375 C371.39756959 433.31469006 373.18673737 435.16284372 375 437 C376.05936768 438.07991211 376.05936768 438.07991211 377.14013672 439.18164062 C387.28704298 449.63070252 387.28704298 449.63070252 397.99609375 459.48828125 C403.6214779 464.3277507 408.73203224 469.68760259 413.93359375 474.97265625 C418.23910118 479.32003247 422.61281448 483.47747005 427.25830078 487.45898438 C430.3546238 490.19854015 433.06239581 493.30518583 435.82421875 496.375 C437.88457353 498.26224009 437.88457353 498.26224009 440.5234375 497.94140625 C447.27046949 495.37668273 453.71040496 488.3548995 457 482 C457.28955004 479.17579076 457.39672754 477.5923575 455.79429626 475.19975281 C455.22916824 474.64874405 454.66404022 474.09773529 454.08178711 473.5300293 C453.44369614 472.89554367 452.80560516 472.26105804 452.1481781 471.60734558 C451.44830276 470.93641373 450.74842743 470.26548187 450.02734375 469.57421875 C449.31147598 468.86779739 448.59560822 468.16137604 447.85804749 467.43354797 C445.56268837 465.17279673 443.25093864 462.9297337 440.9375 460.6875 C438.65249024 458.45271554 436.37105388 456.21437754 434.0919342 453.97358704 C432.67359845 452.58130572 431.25133906 451.19300565 429.82444763 449.80949402 C425.8882328 445.96995593 422.19639093 442.00792608 418.6091156 437.84114075 C416.41488516 435.33051499 414.08723018 432.97488713 411.72265625 430.625 C410.33530273 429.24248047 410.33530273 429.24248047 408.91992188 427.83203125 C407.96750432 426.88796393 407.01502969 425.94395418 406.0625 425 C405.0824469 424.02497614 404.1026276 423.0497172 403.12304688 422.07421875 C400.75097687 419.71383382 398.3765914 417.35583095 396 415 C397.60948117 410.97315722 400.45364742 408.28490518 403.48779297 405.30102539 C404.04736694 404.74276566 404.60694092 404.18450592 405.18347168 403.60932922 C407.03182148 401.76746287 408.8870422 399.93267568 410.7421875 398.09765625 C412.03062928 396.81548772 413.31855536 395.53280079 414.60598755 394.24961853 C417.99669612 390.87221053 421.39292206 387.50041019 424.79077148 384.13018799 C430.2233208 378.74075162 435.64921922 373.34464107 441.07181168 367.94518852 C442.96385339 366.06333774 444.8592904 364.18495753 446.75509644 362.30690002 C447.92132083 361.14750762 449.08743388 359.98800321 450.25341797 358.82836914 C450.77823761 358.31028687 451.30305725 357.79220459 451.84378052 357.25842285 C457.319351 352.11730237 457.319351 352.11730237 460.6484375 345.609375 C459.60934082 341.42794982 456.700057 339.1369206 453.625 336.25 C453.02171875 335.66089844 452.4184375 335.07179688 451.796875 334.46484375 C447.69466458 330.39727928 447.69466458 330.39727928 442.33984375 328.5 C437.26735011 329.25939086 434.96590107 332.34935248 431.5625 336 Z M579.41796875 343.46484375 C577.93619533 346.11407502 577.16216792 347.96795134 577 351 C578.00301777 352.95260198 578.00301777 352.95260198 579.75 354.625 C580.39195312 355.30304688 581.03390625 355.98109375 581.6953125 356.6796875 C582.45585938 357.44539063 583.21640625 358.21109375 584 359 C585.35738281 360.39605469 585.35738281 360.39605469 586.7421875 361.8203125 C591.83440024 367.08462232 591.83440024 367.08462232 597.3984375 371.828125 C599.63205597 373.69282751 601.3238062 375.46802799 603.19384766 377.671875 C606.77268254 381.80204847 610.57481131 385.62353064 614.5 389.421875 C615.89510987 390.7897747 617.28962479 392.15828141 618.68359375 393.52734375 C620.85509665 395.65532758 623.03012936 397.77914652 625.21533203 399.89306641 C627.34242119 401.95390584 629.45353353 404.03001537 631.5625 406.109375 C632.22378906 406.74172058 632.88507812 407.37406616 633.56640625 408.02557373 C634.16453125 408.62009338 634.76265625 409.21461304 635.37890625 409.82714844 C635.9107251 410.34484802 636.44254395 410.86254761 636.99047852 411.39593506 C638 413 638 413 637.76391602 415.08209229 C636.76138995 417.5990607 635.35086416 418.90382577 633.375 420.75 C630.7658014 423.20450303 628.3559806 425.72579877 626.03515625 428.44921875 C621.22306102 434.00014854 616.00439949 439.145054 610.80297852 444.32739258 C609.066064 446.058947 607.33456111 447.79578359 605.60351562 449.53320312 C599.90193514 455.23820682 594.13624067 460.75981738 588 466 C585.93845453 467.83913555 583.93701853 469.71624366 581.9375 471.625 C580.97714844 472.52476562 580.01679687 473.42453125 579.02734375 474.3515625 C576.7794763 476.76552485 576.7794763 476.76552485 576.890625 479.421875 C578.38016482 482.88348163 580.47968878 485.70147692 582.8125 488.625 C583.25142578 489.19734375 583.69035156 489.7696875 584.14257812 490.359375 C587.54530145 494.78411293 587.54530145 494.78411293 592 498 C596.84604357 497.75334509 599.27266614 495.2425502 602.45703125 491.8984375 C602.9636882 491.38374908 603.47034515 490.86906067 603.99235535 490.33877563 C605.60882102 488.69339928 607.21109156 487.03502303 608.8125 485.375 C610.40562157 483.7389783 612.00166179 482.10592014 613.60050964 480.47549438 C614.59179942 479.46299537 615.57952282 478.44698532 616.56269836 477.42660522 C619.1887334 474.72703471 621.89413566 472.19406038 624.74951172 469.73730469 C629.67186529 465.47752877 634.25899788 460.90306791 638.86328125 456.3046875 C639.77708054 455.39421661 640.69087982 454.48374573 641.63237 453.54568481 C643.55102961 451.63296326 645.46766248 449.71823737 647.38305664 447.80224609 C649.83013521 445.3550653 652.28406258 442.91487638 654.73974323 440.47633171 C657.09792879 438.13195436 659.44889702 435.78038618 661.80078125 433.4296875 C663.11795891 432.12328812 663.11795891 432.12328812 664.46174622 430.79049683 C665.27656967 429.97259674 666.09139313 429.15469666 666.9309082 428.31201172 C667.64624222 427.59810272 668.36157623 426.88419373 669.09858704 426.14865112 C672.83200116 421.9297862 674.32806729 418.87187176 674.3984375 413.16015625 C673.07832654 406.00308407 667.97513743 401.58047005 663.0078125 396.71484375 C662.22485809 395.93613419 661.44190369 395.15742462 660.63522339 394.3551178 C658.13879372 391.87542215 655.6321402 389.40636141 653.125 386.9375 C651.44592438 385.27348262 649.76753143 383.60877608 648.08984375 381.94335938 C645.00567483 378.88364485 641.91767136 375.82792241 638.82470703 372.77709961 C634.84154834 368.84711492 630.87905761 364.8974008 626.94921875 360.9140625 C621.71987967 355.63380638 616.50769312 350.42741062 610.8359375 345.6171875 C608.73451328 343.76614574 606.77786288 341.8070876 604.8125 339.8125 C599.93247425 334.44935794 599.93247425 334.44935794 593.5625 331.5 C586.50425779 332.87721799 583.33095319 337.87609998 579.41796875 343.46484375 Z M386 569 C385.8673466 579.92108565 385.73684481 590.84219491 385.60884857 601.76333618 C385.54930696 606.83833038 385.4891131 611.91331482 385.42724609 616.98828125 C385.13511967 640.99329167 384.91371089 664.99304213 385 689 C387.68897754 689.04636168 390.37795544 689.09256457 393.06695557 689.13760376 C395.14487718 689.17452642 397.22264974 689.2200626 399.30029297 689.27026367 C400.63278076 689.28150269 400.63278076 689.28150269 401.9921875 689.29296875 C403.35899658 689.31653442 403.35899658 689.31653442 404.75341797 689.34057617 C405.49479004 689.22818604 406.23616211 689.1157959 407 689 C409.45531647 685.31702529 409.2728067 683.44696039 409.31884766 679.05004883 C409.32889328 678.34735367 409.3389389 677.64465851 409.34928894 676.92066956 C409.38016427 674.59946506 409.39716787 672.27837613 409.4140625 669.95703125 C409.43277068 668.34705101 409.45234383 666.73708061 409.4727478 665.12712097 C409.52411211 660.89065345 409.56371473 656.65415412 409.60089111 652.4175415 C409.64090388 648.0940359 409.69200864 643.77066308 409.7421875 639.44726562 C409.83899767 630.9649344 409.92338606 622.48253756 410 614 C412.74970535 616.64095263 414.55870605 619.36036361 416.51953125 622.64453125 C416.85452133 623.20203064 417.18951141 623.75953003 417.53465271 624.33392334 C418.25509506 625.5331942 418.97375228 626.73353892 419.6907959 627.93484497 C421.59645441 631.12478543 423.51903079 634.30448976 425.44140625 637.484375 C425.82843719 638.12496353 426.21546814 638.76555206 426.61422729 639.42555237 C435.85725252 654.69839831 445.61334099 669.60702767 455.80175781 684.2644043 C456.88396279 685.83192574 457.94340298 687.41510447 459 689 C461.40355042 689.43284883 461.40355042 689.43284883 464.19140625 689.328125 C465.21814453 689.32296875 466.24488281 689.3178125 467.30273438 689.3125 C468.37845703 689.291875 469.45417969 689.27125 470.5625 689.25 C471.64208984 689.24484375 472.72167969 689.2396875 473.83398438 689.234375 C478.76942417 689.64695048 478.76942417 689.64695048 483 688 C484.74817942 675.38052294 484.05216042 662.39736403 483.9140625 649.69921875 C483.8922569 647.36750102 483.87080901 645.03577993 483.84970093 642.70405579 C483.80447915 637.84863987 483.7552752 632.99328576 483.703125 628.13793945 C483.63641954 621.90123479 483.57933517 615.66448503 483.52509499 609.42766094 C483.48239751 604.62801805 483.43494753 599.82843149 483.38599777 595.02884865 C483.36305369 592.72704245 483.3415499 590.42522144 483.32149124 588.12338829 C483.29286625 584.92552978 483.25791917 581.72780358 483.22119141 578.5300293 C483.2138649 577.57379166 483.20653839 576.61755402 483.19898987 575.63233948 C483.18775589 574.76771088 483.17652191 573.90308228 483.16494751 573.01225281 C483.15719614 572.25705195 483.14944477 571.5018511 483.14145851 570.72376537 C483.1845528 568.96891801 483.1845528 568.96891801 482 568 C480.45044441 567.90100477 478.89646327 567.86920476 477.34375 567.8671875 C476.40402344 567.86589844 475.46429688 567.86460937 474.49609375 567.86328125 C473.50738281 567.86714844 472.51867187 567.87101563 471.5 567.875 C470.51128906 567.87113281 469.52257812 567.86726562 468.50390625 567.86328125 C467.09431641 567.86521484 467.09431641 567.86521484 465.65625 567.8671875 C464.35397461 567.86887939 464.35397461 567.86887939 463.02539062 567.87060547 C461.00395846 567.7758463 461.00395846 567.7758463 460 569 C458.73644476 580.06747834 458.84029979 591.25274476 458.875 602.375 C458.87588623 603.19695862 458.87677246 604.01891724 458.87768555 604.86578369 C458.89541484 618.92886382 459.23799048 632.955516 460 647 C455.56099749 642.92618051 452.42404264 638.43812631 449.1875 633.375 C448.63054443 632.51181152 448.07358887 631.64862305 447.49975586 630.75927734 C442.13244523 622.35987591 437.08568802 613.77584649 432.04077148 605.18041992 C426.05424667 595.00860634 419.86396583 584.96438428 413.34960938 575.12060547 C412 573 412 573 411.04101562 571.08642578 C410.12861517 569.17772323 410.12861517 569.17772323 408 567 C404.96900694 566.23074163 402.1060773 566.34122289 399 566.5 C398.19304687 566.5103125 397.38609375 566.520625 396.5546875 566.53125 C392.39611415 566.64104732 389.71066807 567.05805629 386 569 Z M300 568 C296.66485674 575.88632372 293.93511515 583.95324047 291.25683594 592.07888794 C290.47873273 594.43952131 289.69683961 596.79887161 288.9140625 599.15795898 C287.81756129 602.46371485 286.72254092 605.76995486 285.62890625 609.07666016 C283.33866085 616.00063811 281.04128569 622.92223596 278.73864746 629.84210205 C278.2468006 631.32060947 277.75534456 632.79924696 277.26428223 634.27801514 C274.4209811 642.83786538 271.53498571 651.38100085 268.578125 659.90234375 C268.29787476 660.7117189 268.01762451 661.52109406 267.72888184 662.35499573 C266.37932801 666.25132388 265.02355535 670.14526575 263.65625 674.03540039 C263.1716374 675.4297677 262.68724997 676.82421331 262.203125 678.21875 C261.56358887 680.0430957 261.56358887 680.0430957 260.91113281 681.90429688 C259.81176897 685.10170801 259.81176897 685.10170801 260 689 C263.77043032 689.14496508 267.54014742 689.23395607 271.3125 689.3125 C272.38435547 689.35439453 273.45621094 689.39628906 274.56054688 689.43945312 C276.10258789 689.46362305 276.10258789 689.46362305 277.67578125 689.48828125 C279.0975769 689.52755737 279.0975769 689.52755737 280.5480957 689.56762695 C283.20737443 689.22458799 283.20737443 689.22458799 284.74609375 686.73950195 C285.82706218 684.37783007 286.70342183 682.17933255 287.38671875 679.6796875 C287.60263672 678.89722656 287.81855469 678.11476563 288.04101562 677.30859375 C288.25435547 676.50550781 288.46769531 675.70242188 288.6875 674.875 C289.02491211 673.65876953 289.02491211 673.65876953 289.36914062 672.41796875 C290.25840869 669.14740839 291 666.40862096 291 663 C306.18 663.33 321.36 663.66 337 664 C340.25 675.875 340.25 675.875 341.24707031 679.61669922 C341.52131836 680.58623535 341.79556641 681.55577148 342.078125 682.5546875 C342.35043945 683.54968262 342.62275391 684.54467773 342.90332031 685.56982422 C343.79396887 688.10537784 343.79396887 688.10537784 345.93554688 689.32373047 C353.19599381 691.70209353 361.87039088 690.23674012 369 688 C367.29855279 679.162483 364.42885777 670.72063794 361.625 662.1875 C361.08699362 660.53979383 360.54923784 658.89200582 360.01171875 657.24414062 C355.90613144 644.67823777 351.73098064 632.13545246 347.52441406 619.60302734 C344.84302185 611.60299613 342.21435229 603.58865248 339.6484375 595.55078125 C339.37292053 594.69024139 339.09740356 593.82970154 338.8135376 592.94308472 C337.47724172 588.768902 336.1482073 584.59268012 334.83203125 580.41210938 C334.35450358 578.91655905 333.87665651 577.42111066 333.3984375 575.92578125 C333.18440277 575.23599686 332.97036804 574.54621246 332.74984741 573.83552551 C332.22376635 572.20411776 331.61908254 570.59843341 331 569 C328.12981559 567.56490779 325.66456277 567.88841494 322.4609375 567.90234375 C321.15898437 567.90556641 319.85703125 567.90878906 318.515625 567.91210938 C317.13541601 567.92046534 315.75520768 567.92893029 314.375 567.9375 C312.98698074 567.94251499 311.59895978 567.9470779 310.2109375 567.95117188 C306.80724868 567.96299024 303.40364561 567.97946566 300 568 Z M507 569 C506.83755147 571.79311022 506.73950534 574.56339135 506.68359375 577.359375 C506.66272202 578.23437653 506.64185028 579.10937805 506.62034607 580.01089478 C506.55335618 582.92383217 506.49475459 585.83685583 506.4375 588.75 C506.41665344 589.75073547 506.39580688 590.75147095 506.37432861 591.78253174 C505.70031921 624.53210933 505.59043866 657.26893603 507 690 C513.6530737 689.90709969 520.30580471 689.79971838 526.95849609 689.68261719 C529.21820882 689.64450856 531.47797846 689.60962525 533.73779297 689.578125 C536.99988042 689.53207877 540.26158204 689.47415186 543.5234375 689.4140625 C545.02093033 689.39673569 545.02093033 689.39673569 546.54867554 689.37905884 C563.32606105 689.0318944 578.02616721 683.71995341 590.1484375 671.90625 C602.16167798 659.22312623 605.63703644 643.22818763 605.47241211 626.21069336 C604.86083881 606.96196525 597.85108902 592.24971121 584 579 C572.24614572 568.99117187 557.87988616 567.8358992 543.09375 567.8671875 C541.5848822 567.86575241 541.5848822 567.86575241 540.04553223 567.86428833 C537.93790626 567.8636122 535.83027814 567.86542659 533.72265625 567.86962891 C530.48172424 567.87503046 527.240928 567.86964177 524 567.86328125 C521.94791636 567.86394125 519.8958328 567.86522079 517.84375 567.8671875 C516.87095093 567.86516327 515.89815186 567.86313904 514.89587402 567.86105347 C514.00404419 567.86420563 513.11221436 567.86735779 512.19335938 567.87060547 C511.01163147 567.87179886 511.01163147 567.87179886 509.80603027 567.87301636 C507.97824637 567.80316346 507.97824637 567.80316346 507 569 Z M626 569 C625.84476756 580.98914894 625.69662017 592.97836382 625.5570364 604.96770573 C625.49198038 610.53735648 625.42466119 616.10695903 625.35180664 621.67651367 C625.28132978 627.07112967 625.21727163 632.46579007 625.15730476 637.86053276 C625.13359112 639.89858105 625.10772667 641.93660572 625.07946587 643.97459602 C624.88209389 658.35180877 625.22926349 672.64177271 626 687 C628.88826007 688.44413004 631.39396358 688.13528761 634.62109375 688.14526367 C635.64083786 688.15030159 635.64083786 688.15030159 636.68118286 688.15544128 C638.93330704 688.16495744 641.18535695 688.16689459 643.4375 688.16796875 C644.99926789 688.1711804 646.56103548 688.17454441 648.12280273 688.17805481 C651.39795632 688.18404741 654.67308351 688.18589453 657.94824219 688.18530273 C662.15181814 688.185201 666.35522562 688.19886445 670.5587616 688.21607494 C673.78430972 688.22717369 677.00981681 688.22922262 680.23538208 688.22869301 C681.78557924 688.22987591 683.33577737 688.23431495 684.88595581 688.24202538 C687.05039407 688.25178447 689.21446248 688.24896388 691.37890625 688.24291992 C692.6119751 688.24434494 693.84504395 688.24576996 695.11547852 688.24723816 C698.12849187 688.30093311 698.12849187 688.30093311 700 686 C700.27714896 683.86747907 700.27714896 683.86747907 700.1953125 681.4296875 C700.18886719 680.53378906 700.18242188 679.63789062 700.17578125 678.71484375 C700.15902344 677.77769531 700.14226562 676.84054687 700.125 675.875 C700.11597656 674.93011719 700.10695313 673.98523438 700.09765625 673.01171875 C700.07404522 670.67422708 700.04111516 668.33723877 700 666 C697.58225419 664.79112709 696.06668936 664.87940657 693.36669922 664.88647461 C692.40585419 664.88655014 691.44500916 664.88662567 690.45504761 664.88670349 C688.89561935 664.89444542 688.89561935 664.89444542 687.3046875 664.90234375 C686.24210724 664.9037587 685.17952698 664.90517365 684.08474731 664.90663147 C680.68146991 664.91224166 677.27825762 664.92479591 673.875 664.9375 C671.57161553 664.94251369 669.26823003 664.94707682 666.96484375 664.95117188 C661.30985039 664.96136473 655.65499833 664.98093821 650 665 C650.33 656.42 650.66 647.84 651 639 C664.53 638.67 678.06 638.34 692 638 C693.56424629 634.87150741 693.18446398 631.55569916 693.1875 628.125 C693.19974609 627.40441406 693.21199219 626.68382812 693.22460938 625.94140625 C693.23601186 621.81370584 692.89394929 619.78789857 691 616 C670.705 615.505 670.705 615.505 650 615 C650 606.75 650 598.5 650 590 C665.84 590 681.68 590 698 590 C699.63776662 584.26781684 700.24190069 581.74727232 699.75 576.1875 C699.66234375 575.06730469 699.5746875 573.94710937 699.484375 572.79296875 C699.25351613 569.86959644 699.25351613 569.86959644 697 568 C694.0181663 567.69909256 694.0181663 567.69909256 690.47070312 567.75708008 C689.46558937 567.75423256 689.46558937 567.75423256 688.44017029 567.75132751 C686.22041199 567.74761626 684.00097933 567.75832877 681.78125 567.76953125 C680.24190306 567.77072299 678.70255539 567.77117622 677.16320801 567.7709198 C673.93509375 567.77248528 670.70709029 567.78077967 667.47900391 567.79418945 C663.33600123 567.8111794 659.19312041 567.81500382 655.05008698 567.81424427 C651.87085807 567.81451589 648.69165593 567.81999574 645.51243591 567.82724571 C643.98457543 567.83043343 642.4567119 567.83240003 640.92884827 567.83313942 C638.79561165 567.83530189 636.66250556 567.84404408 634.52929688 567.85473633 C632.70634094 567.86045403 632.70634094 567.86045403 630.84655762 567.86628723 C628.05254014 567.80508288 628.05254014 567.80508288 626 569 Z M714 569 C715.2489577 576.86693156 717.61513166 584.25818642 720.19430542 591.77069092 C721.53040389 595.66613146 722.84375755 599.56920969 724.15625 603.47265625 C724.44942612 604.34410278 724.74260223 605.21554932 725.04466248 606.11340332 C727.70516919 614.05471507 730.28208098 622.02248097 732.84375 629.99609375 C733.05312258 630.64766134 733.26249516 631.29922894 733.47821236 631.970541 C735.38475684 637.90560049 737.28774878 643.8417947 739.18600464 649.7795105 C743.80753995 670.60093839 743.80753995 670.60093839 753 689 C755.04882197 689.09996094 757.10108569 689.13080946 759.15234375 689.1328125 C761.02889648 689.13474609 761.02889648 689.13474609 762.94335938 689.13671875 C764.26142578 689.13285156 765.57949219 689.12898437 766.9375 689.125 C768.25169922 689.12886719 769.56589844 689.13273438 770.91992188 689.13671875 C772.17224609 689.13542969 773.42457031 689.13414062 774.71484375 689.1328125 C775.87105225 689.13168457 777.02726074 689.13055664 778.21850586 689.12939453 C780.95718631 689.19022637 780.95718631 689.19022637 783 688 C784.00065176 685.25179302 784.88631955 682.53325385 785.72265625 679.734375 C785.98376694 678.88289383 786.24487762 678.03141266 786.51390076 677.15412903 C787.37058329 674.35487939 788.21649964 671.55249466 789.0625 668.75 C789.65547401 666.80567137 790.24922887 664.86158073 790.84375 662.91772461 C792.02813623 659.04296838 793.20902743 655.16717507 794.38720703 651.29052734 C796.05677218 645.80390807 797.75839555 640.32792873 799.47070312 634.85449219 C801.10117699 629.63976029 802.71345837 624.41945503 804.32244873 619.19805908 C804.81151431 617.61147059 805.30103177 616.02502136 805.79083252 614.43865967 C807.58964512 608.61112381 809.37968411 602.78098455 811.16064453 596.94796753 C811.75800029 594.99534271 812.35774176 593.04344602 812.95996094 591.09231567 C813.80417091 588.3551919 814.63943572 585.61548596 815.47265625 582.875 C815.72841934 582.05237167 815.98418243 581.22974335 816.24769592 580.38218689 C817.42255265 576.48562515 818.33461843 573.12092677 818 569 C813.78035054 567.98370678 809.77126004 567.83401817 805.4375 567.8125 C803.48650391 567.79123047 803.48650391 567.79123047 801.49609375 567.76953125 C798.16911674 567.98885152 796.72103752 568.22968483 794 570 C792.86268942 572.90616392 791.98673317 575.63241988 791.1875 578.6328125 C790.93683273 579.52133911 790.68616547 580.40986572 790.42790222 581.32531738 C789.60433956 584.25476358 788.80241032 587.18969665 788 590.125 C787.14682212 593.17960574 786.28801549 596.2325918 785.42875671 599.28549194 C784.83984706 601.37876748 784.25271998 603.47254528 783.66731262 605.56680298 C780.41389226 617.17821075 776.91295057 628.71329166 773.38647461 640.24420166 C772.64367357 642.67483243 771.90556651 645.10684879 771.16796875 647.5390625 C770.9467485 648.25574097 770.72552826 648.97241943 770.49760437 649.71081543 C769.62662743 652.58955143 769 654.97278307 769 658 C768.34 658 767.68 658 767 658 C766.8263089 657.33427979 766.6526178 656.66855957 766.47366333 655.98266602 C764.6696321 649.20270493 762.58998876 642.56908211 760.3046875 635.9375 C759.9555278 634.91491089 759.6063681 633.89232178 759.24662781 632.83874512 C758.12587099 629.55808688 757.00057698 626.27900723 755.875 623 C754.33832883 618.51093404 752.80368772 614.02117591 751.26953125 609.53125 C750.7092347 607.89283142 750.7092347 607.89283142 750.13761902 606.22131348 C748.04221253 600.08510431 745.97117482 593.94205341 743.94921875 587.78125 C743.73565735 587.1318042 743.52209595 586.4823584 743.30206299 585.81323242 C742.36426599 582.95748206 741.43370541 580.099652 740.51318359 577.23828125 C740.20074707 576.28308594 739.88831055 575.32789063 739.56640625 574.34375 C739.30802979 573.54130859 739.04965332 572.73886719 738.78344727 571.91210938 C738.06479818 569.80731658 738.06479818 569.80731658 736 568 C733.19137426 567.82684543 730.49318634 567.7679653 727.6875 567.8125 C726.92759766 567.81314453 726.16769531 567.81378906 725.38476562 567.81445312 C721.44048533 567.84529459 717.8678977 568.15530608 714 569 Z M216 569 C215.92995549 584.20305432 215.87703421 599.40610121 215.84456348 614.60928059 C215.8290868 621.66820478 215.80798212 628.72702878 215.77368164 635.78588867 C215.74061554 642.59395997 215.72316266 649.40192695 215.71536827 656.21007347 C215.70981136 658.81169463 215.69896059 661.41330989 215.68280983 664.01488686 C215.66113508 667.64978129 215.65802895 671.28424114 215.65942383 674.91918945 C215.648638 676.00244003 215.63785217 677.08569061 215.6267395 678.20176697 C215.63086349 679.19034698 215.63498749 680.178927 215.63923645 681.19746399 C215.63647107 682.05749684 215.63370569 682.9175297 215.63085651 683.80362415 C216.08197198 686.48772708 216.85897696 687.36918123 219 689 C221.08667263 689.44283962 221.08667263 689.44283962 223.37890625 689.36328125 C224.63670898 689.36231445 224.63670898 689.36231445 225.91992188 689.36132812 C226.79197266 689.34521484 227.66402344 689.32910156 228.5625 689.3125 C229.43841797 689.31572266 230.31433594 689.31894531 231.21679688 689.32226562 C236.12550985 689.55478354 236.12550985 689.55478354 240 687 C241.51638745 679.25677043 241.14994503 671.30487995 241.12109375 663.4453125 C241.1197537 662.68807011 241.11841366 661.93082771 241.117033 661.15063858 C241.08333776 644.02702728 240.68524348 626.91433162 240.20043945 609.79833984 C240.08168355 605.60369296 239.97196613 601.4088589 239.86443424 597.21391106 C239.77955703 593.94034024 239.69011965 590.66690669 239.59924126 587.39349747 C239.55674338 585.84251897 239.515688 584.29150024 239.4761219 582.74044418 C239.42113198 580.61049184 239.35999523 578.48080628 239.29711914 576.35107422 C239.24715538 574.54085281 239.24715538 574.54085281 239.19618225 572.69406128 C239.30122029 570.08325907 239.30122029 570.08325907 238 569 C235.05675974 568.73431131 232.1368209 568.53034765 229.1875 568.375 C227.95676758 568.29765625 227.95676758 568.29765625 226.70117188 568.21875 C225.90646484 568.17492187 225.11175781 568.13109375 224.29296875 568.0859375 C223.5661792 568.0451709 222.83938965 568.0044043 222.09057617 567.96240234 C219.90994904 568.00161951 218.0997751 568.4410038 216 569 Z " fill="#000000" transform="translate(0,0)"/>
<path d="M0 0 C3.38172571 0.07138137 6.76181436 0.16476944 10.14257812 0.27270508 C11.8828125 0.30074219 11.8828125 0.30074219 13.65820312 0.3293457 C23.86835795 0.65851925 31.30472128 3.03420222 38.85351562 10.02661133 C41.97608447 13.61961084 43.88960353 17.68917965 45.64257812 22.08520508 C46.00867188 22.96692383 46.37476563 23.84864258 46.75195312 24.75708008 C49.71240479 35.81982051 49.05663818 49.9694613 43.64257812 60.08520508 C43.29195312 60.81739258 42.94132813 61.54958008 42.58007812 62.30395508 C38.44337331 70.00282238 31.34300685 73.89681978 23.23339844 76.49414062 C18.40090757 77.59661522 13.57375708 77.43520364 8.64257812 77.33520508 C7.59457031 77.33004883 6.5465625 77.32489258 5.46679688 77.31958008 C-2.20262584 77.24000111 -2.20262584 77.24000111 -3.35742188 76.08520508 C-3.45765742 73.74806183 -3.4936139 71.44046183 -3.48681641 69.1027832 C-3.48856873 68.37272568 -3.49032104 67.64266815 -3.49212646 66.89048767 C-3.49654487 64.4657863 -3.49360704 62.04115726 -3.49023438 59.61645508 C-3.49090742 57.93876125 -3.49187745 56.26106752 -3.49313354 54.58337402 C-3.4946105 51.06265334 -3.49245604 47.54195798 -3.48779297 44.02124023 C-3.48209568 39.49810012 -3.4853747 34.97501934 -3.49136543 30.45188141 C-3.49497111 26.98618112 -3.49383243 23.52049501 -3.49123764 20.05479431 C-3.49056839 18.38655083 -3.49139673 16.71830609 -3.49371719 15.05006409 C-3.49624383 12.72255014 -3.492403 10.3951336 -3.48681641 8.06762695 C-3.48884064 7.37148788 -3.49086487 6.67534882 -3.49295044 5.95811462 C-3.4668843 0.12530475 -3.4668843 0.12530475 0 0 Z " fill="#000000" transform="translate(533.357421875,589.914794921875)"/>
<path d="M0 0 C3.72244049 2.48162699 3.85814315 3.86421854 5.12109375 8.08203125 C5.49943359 9.32533203 5.87777344 10.56863281 6.26757812 11.84960938 C6.65785492 13.17048348 7.04782767 14.49144745 7.4375 15.8125 C7.8225609 17.0907985 8.20861928 18.36879699 8.59570312 19.64648438 C9.35954271 22.17662195 10.11918211 24.70803155 10.87451172 27.24072266 C12.55008022 32.83733953 14.2733568 38.41893703 16 44 C15 45 15 45 12.13256836 45.11352539 C10.88096924 45.10828857 9.62937012 45.10305176 8.33984375 45.09765625 C7.34314415 45.09553383 7.34314415 45.09553383 6.3263092 45.09336853 C4.19666101 45.08775518 2.06711661 45.07520054 -0.0625 45.0625 C-1.50325369 45.05748671 -2.94400903 45.05292351 -4.38476562 45.04882812 C-7.92321102 45.03778145 -11.46159539 45.02050792 -15 45 C-12.77036847 37.47328537 -10.44262763 29.98040113 -8.0625 22.5 C-7.72798828 21.43652344 -7.39347656 20.37304688 -7.04882812 19.27734375 C-4.96408242 12.7298765 -2.65480575 6.33824914 0 0 Z " fill="#000000" transform="translate(314,596)"/>
</svg>
